<?xml version="1.0" standalone="no"?>
<!DOCTYPE svg PUBLIC "-//W3C//DTD SVG 20010904//EN"
 "http://www.w3.org/TR/2001/REC-SVG-20010904/DTD/svg10.dtd">
<svg version="1.0" xmlns="http://www.w3.org/2000/svg"
 width="152.000000pt" height="152.000000pt" viewBox="0 0 152.000000 152.000000"
 preserveAspectRatio="xMidYMid meet">
<metadata>
Created by potrace 1.11, written by Peter Selinger 2001-2013
</metadata>
<g transform="translate(0.000000,152.000000) scale(0.100000,-0.100000)"
fill="#000000" stroke="none">
<path d="M805 973 c-36 -15 -61 -21 -68 -15 -21 16 -101 31 -145 27 -72 -7
-105 -35 -169 -144 -37 -62 -101 -126 -129 -128 -11 -1 -41 -6 -67 -11 -68
-13 -118 -5 -144 23 -19 21 -20 29 -11 62 6 21 15 47 20 57 10 18 9 18 -18 -1
-46 -33 -64 -57 -68 -94 -12 -109 89 -195 242 -204 42 -2 79 -5 82 -5 14 -3
154 2 177 6 101 18 137 34 226 97 25 18 26 18 86 -21 111 -72 296 -102 481
-77 153 20 221 87 214 209 -3 50 -18 78 -54 99 -35 21 -46 22 -26 1 18 -17 21
-70 6 -108 -10 -28 -66 -56 -112 -56 -52 0 -92 26 -198 132 -176 175 -220 195
-325 151z"/>
</g>
</svg>
