<svg xmlns="http://www.w3.org/2000/svg" width="16" height="16" viewBox="0 0 16 16">
  <metadata><?xpacket begin="﻿" id="W5M0MpCehiHzreSzNTczkc9d"?>
<x:xmpmeta xmlns:x="adobe:ns:meta/" x:xmptk="Adobe XMP Core 5.6-c138 79.159824, 2016/09/14-01:09:01        ">
   <rdf:RDF xmlns:rdf="http://www.w3.org/1999/02/22-rdf-syntax-ns#">
      <rdf:Description rdf:about=""/>
   </rdf:RDF>
</x:xmpmeta>
                                                                                                    
                                                                                                    
                                                                                                    
                                                                                                    
                                                                                                    
                                                                                                    
                                                                                                    
                                                                                                    
                                                                                                    
                                                                                                    
                                                                                                    
                                                                                                    
                                                                                                    
                                                                                                    
                                                                                                    
                                                                                                    
                                                                                                    
                                                                                                    
                                                                                                    
                                                                                                    
                           
<?xpacket end="w"?></metadata>
<defs>
    <style>
      .cls-1 {
        fill: #fff;
        fill-rule: evenodd;
        opacity: 0.3;
      }
    </style>
  </defs>
  <path id="In_alt_copy_8" data-name="In (alt) copy 8" class="cls-1" d="M828,738v14a1,1,0,0,1-1,1h-7a1,1,0,0,1,0-2h6V739h-6a1,1,0,1,1,0-2h7A1,1,0,0,1,828,738Zm-16,7a1,1,0,0,1,1-1h9a1,1,0,1,1,0,2h-9A1,1,0,0,1,812,745Zm9,1v-2h2v2h-2Zm-2,3,4-4-4-4v8Z" transform="translate(-812 -737)"/>
</svg>
